<svg xmlns="http://www.w3.org/2000/svg" width="41.762" height="40.731" viewBox="0 0 41.762 40.731">
  <path id="Caminho_29" data-name="Caminho 29" d="M20.882,1.6a20.883,20.883,0,0,0-6.6,40.694c1.043.193,1.427-.453,1.427-1,0-.5-.02-2.143-.029-3.887-5.809,1.263-7.035-2.463-7.035-2.463a5.527,5.527,0,0,0-2.319-3.055c-1.895-1.3.143-1.269.143-1.269a4.393,4.393,0,0,1,3.2,2.152c1.863,3.193,4.885,2.269,6.076,1.736a4.441,4.441,0,0,1,1.326-2.792c-4.639-.528-9.514-2.319-9.514-10.32a8.078,8.078,0,0,1,2.152-5.6,7.5,7.5,0,0,1,.2-5.524s1.754-.562,5.744,2.14a19.807,19.807,0,0,1,10.458,0c3.986-2.7,5.737-2.14,5.737-2.14a7.492,7.492,0,0,1,.2,5.526,8.068,8.068,0,0,1,2.148,5.6c0,8.019-4.885,9.787-9.535,10.3a4.988,4.988,0,0,1,1.417,3.867c0,2.794-.023,5.043-.023,5.73,0,.555.376,1.207,1.434,1A20.884,20.884,0,0,0,20.882,1.6" transform="translate(0 -1.6)" fill="#b3f00d"/>
</svg>
