<svg xmlns="http://www.w3.org/2000/svg" width="40.37" height="40.37" viewBox="0 0 40.37 40.37">
  <path id="linkedin-icon" d="M27.21,7.025A20.185,20.185,0,1,0,47.4,27.21,20.185,20.185,0,0,0,27.21,7.025ZM21.825,36.969H17.393V22.651h4.432ZM19.588,20.776a2.642,2.642,0,1,1,2.621-2.642A2.631,2.631,0,0,1,19.588,20.776ZM38.433,36.969h-4.41V29.453c0-2.061-.783-3.212-2.413-3.212-1.774,0-2.7,1.2-2.7,3.212v7.516H24.658V22.651h4.251v1.928a4.994,4.994,0,0,1,4.315-2.365c3.036,0,5.209,1.854,5.209,5.689Z" transform="translate(-7.025 -7.025)" fill="#b3f00d"/>
</svg>
