<svg xmlns="http://www.w3.org/2000/svg" xmlns:xlink="http://www.w3.org/1999/xlink" width="160" height="24.444" viewBox="0 0 160 24.444">
  <defs>
    <clipPath id="clip-path">
      <rect id="Retângulo_13" data-name="Retângulo 13" width="160" height="24.444" fill="none"/>
    </clipPath>
  </defs>
  <g id="Grupo_15" data-name="Grupo 15" transform="translate(0 0)">
    <g id="Grupo_14" data-name="Grupo 14" transform="translate(0 0)" clip-path="url(#clip-path)">
      <path id="Caminho_31" data-name="Caminho 31" d="M23.674,14.729A2.628,2.628,0,0,0,21.046,12.1h-4.61a3.214,3.214,0,0,0-3.214,3.214.74.74,0,0,0,.74.74h3.012s6.4-.642,6.686,2.656c.007-.125.014-.25.014-.376Z" transform="translate(-1.464 -1.34)" fill="#b3f00d"/>
      <path id="Caminho_32" data-name="Caminho 32" d="M16.171,16.374a1.75,1.75,0,0,1,1.749,1.749,3.1,3.1,0,0,1-2.062,2.931,7.741,7.741,0,0,1-2.545.442,7.625,7.625,0,0,1-7.341-6.51,19.125,19.125,0,0,0,5.085,10.909,12.547,12.547,0,0,0,2.256.209,13.844,13.844,0,0,0,5.416-1.132,6.865,6.865,0,0,0,4.128-5.941c-.288-3.3-6.686-2.656-6.686-2.656" transform="translate(-0.661 -1.659)" fill="#fff"/>
      <path id="Caminho_33" data-name="Caminho 33" d="M5.311,13.326A7.549,7.549,0,0,1,5.226,12.2a7.634,7.634,0,0,1,7.426-7.6A8.147,8.147,0,0,1,18.27,6.971a.409.409,0,0,0,.563.012,3.56,3.56,0,0,0-.963-5.935A13.816,13.816,0,0,0,12.652,0C5.811,0,0,5.57,0,12.2a12.57,12.57,0,0,0,10.4,12.03A19.125,19.125,0,0,1,5.311,13.326Z" transform="translate(0 0)" fill="#b3f00d"/>
      <path id="Caminho_34" data-name="Caminho 34" d="M27.291,18.573c0-4.024,3.354-6.323,6.85-6.323s6.875,2.323,6.875,6.323v5.988h-4v-.6a5.831,5.831,0,0,1-3.065.934,6.219,6.219,0,0,1-6.659-6.324m6.874,2.8a2.673,2.673,0,0,0,2.659-2.8,2.675,2.675,0,1,0-5.342,0,2.664,2.664,0,0,0,2.683,2.8" transform="translate(-3.021 -1.357)" fill="#fff"/>
      <path id="Caminho_35" data-name="Caminho 35" d="M44.666,17.864V5.839h4.143v6.492a6.478,6.478,0,0,1,9.582,5.533c0,4.024-3.354,6.324-6.851,6.324s-6.874-2.324-6.874-6.324m6.85,2.826A2.685,2.685,0,0,0,54.2,17.864a2.674,2.674,0,1,0-5.342,0,2.694,2.694,0,0,0,2.659,2.826" transform="translate(-4.945 -0.647)" fill="#fff"/>
      <path id="Caminho_36" data-name="Caminho 36" d="M69.149,12.25v3.665c-1.485,0-3.185.815-3.185,3.545v5.1H61.771V18.526c0-4,3.737-6.276,7.378-6.276" transform="translate(-6.839 -1.357)" fill="#fff"/>
      <path id="Caminho_37" data-name="Caminho 37" d="M73.79,5.973A2.336,2.336,0,1,1,71.442,8.3,2.332,2.332,0,0,1,73.79,5.973m-2.084,5.916H75.9V23.866H71.706Z" transform="translate(-7.909 -0.662)" fill="#fff"/>
      <path id="Caminho_38" data-name="Caminho 38" d="M78.366,18.574c0-3.665,2.9-6.324,6.922-6.324,4.192,0,6.97,2.659,6.659,7.33H82.629a1.823,1.823,0,0,0,.144.479,2.692,2.692,0,0,0,2.515,1.8,2.228,2.228,0,0,0,2.3-1.437h4.263c-.695,2.8-3.161,4.479-6.563,4.479-4.024,0-6.922-2.635-6.922-6.324m9.485-1.629a2.378,2.378,0,0,0-2.515-1.652,2.887,2.887,0,0,0-2.587,1.652Z" transform="translate(-8.676 -1.357)" fill="#fff"/>
      <path id="Caminho_39" data-name="Caminho 39" d="M95.471,18.013V5.893h4.192V17.8c0,1.6.742,2.635,2.347,2.635h.431v3.76h-.6c-4.167,0-6.371-2.06-6.371-6.18" transform="translate(-10.57 -0.653)" fill="#fff"/>
      <path id="Caminho_40" data-name="Caminho 40" d="M112.576,18h4.216c0,1.485,1.317,2.539,3.354,2.563,1.7.024,3.113-.55,3.113-1.748,0-1.342-2.252-1.8-4.359-2.42-2.779-.791-5.988-1.532-5.988-5.246-.047-3.113,3.138-5.628,7.042-5.628,4.192,0,7.162,2.587,7.162,6.252h-4.168c0-1.509-1.1-2.563-3.066-2.587-1.6-.024-2.778.743-2.778,1.7,0,1.413,2.18,1.916,4.239,2.491,2.779.839,6.061,1.557,6.109,5.2.048,3.354-3.161,5.581-7.354,5.581-4.384,0-7.522-2.443-7.522-6.156" transform="translate(-12.463 -0.611)" fill="#fff"/>
      <path id="Caminho_41" data-name="Caminho 41" d="M131.325,17.1V7.59h4.192v4.478h3.425V15.3h-3.425V16.86c0,2.395.814,3.736,3.5,3.689v3.569h-1.341c-4.12,0-6.348-2.826-6.348-7.018" transform="translate(-14.539 -0.841)" fill="#fff"/>
      <path id="Caminho_42" data-name="Caminho 42" d="M141.1,18.574c0-3.665,2.9-6.324,6.922-6.324,4.192,0,6.97,2.659,6.659,7.33h-9.318a1.824,1.824,0,0,0,.144.479,2.692,2.692,0,0,0,2.515,1.8,2.228,2.228,0,0,0,2.3-1.437h4.263c-.695,2.8-3.161,4.479-6.563,4.479-4.024,0-6.922-2.635-6.922-6.324m9.485-1.629a2.378,2.378,0,0,0-2.515-1.652,2.887,2.887,0,0,0-2.587,1.652Z" transform="translate(-15.622 -1.357)" fill="#fff"/>
      <path id="Caminho_43" data-name="Caminho 43" d="M160.368,5.973A2.336,2.336,0,1,1,158.021,8.3a2.331,2.331,0,0,1,2.347-2.324m-2.084,5.916h4.192V23.866h-4.192Z" transform="translate(-17.495 -0.662)" fill="#fff"/>
      <path id="Caminho_44" data-name="Caminho 44" d="M171.845,12.25c3.329,0,6.467,2.18,6.467,6.084v6.229H174.12v-6.2a2.265,2.265,0,1,0-4.527,0v6.2H165.4V18.334c0-3.9,3.138-6.084,6.444-6.084" transform="translate(-18.312 -1.357)" fill="#fff"/>
    </g>
  </g>
</svg>
