<svg xmlns="http://www.w3.org/2000/svg" xmlns:xlink="http://www.w3.org/1999/xlink" width="444.925" height="489.69" viewBox="0 0 444.925 489.69">
  <defs>
    <clipPath id="clip-path">
      <rect id="Retângulo_12" data-name="Retângulo 12" width="444.925" height="489.69" fill="none"/>
    </clipPath>
  </defs>
  <g id="Grupo_13" data-name="Grupo 13" transform="translate(0 0)" opacity="0.12">
    <g id="Grupo_12" data-name="Grupo 12" transform="translate(0 0)" clip-path="url(#clip-path)">
      <path id="Caminho_26" data-name="Caminho 26" d="M243.61,83.975a52.645,52.645,0,0,0-52.65-52.643H98.615A64.379,64.379,0,0,0,34.234,95.713a14.822,14.822,0,0,0,14.821,14.821H109.4s128.157-12.853,133.937,53.207c.131-2.5.275-5,.275-7.527Z" transform="translate(201.315 184.247)" fill="#b3f00d"/>
      <path id="Caminho_27" data-name="Caminho 27" d="M219.787,66.612a35.038,35.038,0,0,1,35.036,35.036,62.093,62.093,0,0,1-41.3,58.719,155.108,155.108,0,0,1-50.985,8.869c-73.161,0-136.1-57.921-147.072-130.435,0,0,9.791,126.451,101.88,218.541a250.485,250.485,0,0,0,45.192,4.183,277.344,277.344,0,0,0,108.493-22.678,137.5,137.5,0,0,0,82.7-119.02c-5.773-66.067-133.937-53.214-133.937-53.214" transform="translate(90.925 228.169)" fill="#fff"/>
      <path id="Caminho_28" data-name="Caminho 28" d="M106.387,266.966a149.842,149.842,0,0,1-1.7-22.465c0-81.961,68.186-152.212,148.765-152.212,40.809,0,84.046,18.275,112.545,47.373a8.176,8.176,0,0,0,11.27.248c38.813-34.829,28.926-99.059-19.3-118.9A276.835,276.835,0,0,0,253.452,0C116.4,0,0,111.575,0,244.5,0,362.516,91.766,464.17,208.261,485.506,116.178,393.417,106.387,266.966,106.387,266.966Z" transform="translate(0 -0.003)" fill="#b3f00d"/>
    </g>
  </g>
</svg>
