<svg xmlns="http://www.w3.org/2000/svg" xmlns:xlink="http://www.w3.org/1999/xlink" width="255" height="38.957" viewBox="0 0 255 38.957">
  <defs>
    <clipPath id="clip-path">
      <rect id="Retângulo_2" data-name="Retângulo 2" width="255" height="38.957" fill="none"/>
    </clipPath>
  </defs>
  <g id="Grupo_2" data-name="Grupo 2" transform="translate(0 0)">
    <g id="Grupo_1" data-name="Grupo 1" transform="translate(0 0)" clip-path="url(#clip-path)">
      <path id="Caminho_1" data-name="Caminho 1" d="M29.88,16.289A4.188,4.188,0,0,0,25.691,12.1H18.344a5.122,5.122,0,0,0-5.122,5.122A1.18,1.18,0,0,0,14.4,18.4h4.8s10.2-1.023,10.655,4.233c.011-.2.023-.4.023-.6Z" transform="translate(5.518 5.049)" fill="#b3f00d"/>
      <path id="Caminho_2" data-name="Caminho 2" d="M22.227,17.2a2.788,2.788,0,0,1,2.788,2.788,4.942,4.942,0,0,1-3.287,4.671,12.338,12.338,0,0,1-4.056.7,12.152,12.152,0,0,1-11.7-10.376s.78,10.06,8.1,17.386a20,20,0,0,0,3.6.333A22.063,22.063,0,0,0,26.3,30.9a10.941,10.941,0,0,0,6.579-9.469C32.423,16.177,22.227,17.2,22.227,17.2" transform="translate(2.492 6.253)" fill="#fff"/>
      <path id="Caminho_3" data-name="Caminho 3" d="M8.464,21.238a12.032,12.032,0,0,1-.135-1.787A12.167,12.167,0,0,1,20.164,7.342a12.984,12.984,0,0,1,8.953,3.769.651.651,0,0,0,.9.02,5.674,5.674,0,0,0-1.535-9.459A22.019,22.019,0,0,0,20.164,0C9.261,0,0,8.877,0,19.451c0,9.388,7.3,17.475,16.568,19.173C9.244,31.3,8.464,21.238,8.464,21.238Z" transform="translate(0 -0.001)" fill="#b3f00d"/>
      <path id="Caminho_4" data-name="Caminho 4" d="M27.291,22.327c0-6.413,5.345-10.077,10.917-10.077s10.957,3.7,10.957,10.077v9.544H42.789v-.954A9.293,9.293,0,0,1,37.9,32.405c-5.651.153-10.576-3.7-10.613-10.078m10.956,4.467a4.26,4.26,0,0,0,4.238-4.467,4.264,4.264,0,1,0-8.514,0,4.246,4.246,0,0,0,4.276,4.467" transform="translate(11.389 5.111)" fill="#fff"/>
      <path id="Caminho_5" data-name="Caminho 5" d="M44.666,25V5.839h6.6V16.185a10.007,10.007,0,0,1,4.657-1.26C61.577,14.772,66.5,18.627,66.541,25c0,6.413-5.346,10.078-10.919,10.078S44.666,31.379,44.666,25m10.917,4.5A4.278,4.278,0,0,0,59.86,25a4.262,4.262,0,1,0-8.514,0,4.294,4.294,0,0,0,4.238,4.5" transform="translate(18.639 2.436)" fill="#fff"/>
      <path id="Caminho_6" data-name="Caminho 6" d="M73.529,12.25v5.841c-2.367,0-5.077,1.3-5.077,5.649v8.132H61.771V22.252c0-6.375,5.956-10,11.758-10" transform="translate(25.777 5.111)" fill="#fff"/>
      <path id="Caminho_7" data-name="Caminho 7" d="M75.184,5.973a3.723,3.723,0,1,1-3.742,3.7,3.716,3.716,0,0,1,3.742-3.7M71.863,15.4h6.681V34.491H71.863Z" transform="translate(29.813 2.492)" fill="#fff"/>
      <path id="Caminho_8" data-name="Caminho 8" d="M78.366,22.328c0-5.841,4.619-10.078,11.032-10.078,6.681,0,11.109,4.238,10.613,11.681H85.161a2.906,2.906,0,0,0,.23.764A4.29,4.29,0,0,0,89.4,27.558a3.551,3.551,0,0,0,3.665-2.29h6.795c-1.107,4.466-5.039,7.139-10.46,7.139-6.413,0-11.032-4.2-11.032-10.078m15.117-2.6c-.458-1.718-2.022-2.633-4.008-2.633a4.6,4.6,0,0,0-4.123,2.633Z" transform="translate(32.702 5.111)" fill="#fff"/>
      <path id="Caminho_9" data-name="Caminho 9" d="M95.471,25.209V5.893h6.681V24.866c0,2.557,1.182,4.2,3.74,4.2h.687v5.992h-.955c-6.641,0-10.154-3.282-10.154-9.849" transform="translate(39.84 2.459)" fill="#fff"/>
      <path id="Caminho_10" data-name="Caminho 10" d="M112.576,25.405H119.3c0,2.367,2.1,4.046,5.345,4.085,2.71.038,4.962-.877,4.962-2.786,0-2.139-3.589-2.863-6.948-3.856-4.429-1.26-9.544-2.442-9.544-8.361-.075-4.962,5-8.97,11.224-8.97,6.681,0,11.415,4.123,11.415,9.964h-6.643c0-2.405-1.756-4.085-4.887-4.123-2.557-.038-4.428,1.183-4.428,2.71,0,2.252,3.474,3.054,6.756,3.97,4.429,1.337,9.659,2.482,9.735,8.284.077,5.345-5.039,8.9-11.72,8.9-6.987,0-11.988-3.893-11.988-9.811" transform="translate(46.978 2.301)" fill="#fff"/>
      <path id="Caminho_11" data-name="Caminho 11" d="M131.325,22.745V7.59h6.681v7.138h5.458v5.155h-5.458v2.482c0,3.817,1.3,5.954,5.573,5.879v5.688h-2.137c-6.566,0-10.117-4.5-10.117-11.185" transform="translate(54.802 3.167)" fill="#fff"/>
      <path id="Caminho_12" data-name="Caminho 12" d="M141.1,22.328c0-5.841,4.619-10.078,11.032-10.078,6.681,0,11.109,4.238,10.613,11.681H147.9a2.907,2.907,0,0,0,.23.764,4.29,4.29,0,0,0,4.008,2.863,3.551,3.551,0,0,0,3.665-2.29H162.6c-1.107,4.466-5.039,7.139-10.46,7.139-6.413,0-11.032-4.2-11.032-10.078m15.117-2.6c-.458-1.718-2.022-2.633-4.008-2.633a4.6,4.6,0,0,0-4.123,2.633Z" transform="translate(58.883 5.111)" fill="#fff"/>
      <path id="Caminho_13" data-name="Caminho 13" d="M161.761,5.973a3.723,3.723,0,1,1-3.74,3.7,3.716,3.716,0,0,1,3.74-3.7M158.441,15.4h6.681V34.491h-6.681Z" transform="translate(65.943 2.492)" fill="#fff"/>
      <path id="Caminho_14" data-name="Caminho 14" d="M175.671,12.25c5.306,0,10.307,3.474,10.307,9.7v9.927H179.3V21.984a3.61,3.61,0,1,0-7.215,0v9.889H165.4V21.946c0-6.222,5-9.7,10.27-9.7" transform="translate(69.023 5.111)" fill="#fff"/>
    </g>
  </g>
</svg>
