<svg xmlns="http://www.w3.org/2000/svg" width="85.996" height="76.583" viewBox="0 0 85.996 76.583">
  <g id="react-2" transform="translate(-175.7 -78)">
    <path id="Caminho_23" data-name="Caminho 23" d="M261.7,116.3c0-5.7-7.134-11.1-18.072-14.444,2.524-11.148,1.4-20.018-3.541-22.857a7.685,7.685,0,0,0-3.926-.982v3.909a4.059,4.059,0,0,1,2,.456c2.384,1.367,3.418,6.573,2.612,13.269-.193,1.648-.508,3.383-.894,5.153a84.948,84.948,0,0,0-11.131-1.911,85.511,85.511,0,0,0-7.292-8.764c5.714-5.311,11.078-8.221,14.724-8.221V78c-4.82,0-11.131,3.436-17.511,9.4-6.38-5.925-12.691-9.325-17.511-9.325v3.909c3.628,0,9.01,2.892,14.724,8.168a82.788,82.788,0,0,0-7.239,8.747,81.854,81.854,0,0,0-11.148,1.928c-.4-1.753-.7-3.453-.911-5.083-.824-6.7.193-11.9,2.559-13.287A3.9,3.9,0,0,1,201.152,82V78.088a7.816,7.816,0,0,0-3.962.982c-4.926,2.84-6.03,11.692-3.488,22.8-10.9,3.366-18,8.747-18,14.426,0,5.7,7.134,11.1,18.072,14.444-2.524,11.148-1.4,20.018,3.541,22.857a7.706,7.706,0,0,0,3.944.982c4.82,0,11.131-3.436,17.511-9.4,6.38,5.925,12.691,9.325,17.511,9.325a7.816,7.816,0,0,0,3.961-.982c4.926-2.84,6.03-11.692,3.488-22.8C254.6,127.378,261.7,121.979,261.7,116.3Zm-22.822-11.692c-.649,2.261-1.455,4.593-2.366,6.924-.719-1.4-1.472-2.8-2.3-4.207-.806-1.4-1.665-2.77-2.524-4.1C234.176,103.592,236.577,104.048,238.873,104.609Zm-8.028,18.668c-1.367,2.366-2.77,4.61-4.224,6.7-2.612.228-5.259.351-7.923.351-2.647,0-5.294-.123-7.888-.333q-2.182-3.129-4.242-6.661-2-3.444-3.646-6.976c1.087-2.349,2.314-4.7,3.628-6.994,1.367-2.366,2.77-4.61,4.224-6.7,2.612-.228,5.259-.351,7.923-.351,2.647,0,5.294.123,7.888.333q2.182,3.129,4.242,6.661,2,3.444,3.646,6.976C233.369,118.632,232.16,120.98,230.845,123.277ZM236.507,121c.947,2.349,1.753,4.7,2.419,6.976-2.3.561-4.715,1.034-7.222,1.4.859-1.35,1.718-2.734,2.524-4.154.806-1.4,1.56-2.822,2.279-4.224Zm-17.774,18.7a72.254,72.254,0,0,1-4.873-5.609c1.578.07,3.19.123,4.82.123,1.648,0,3.278-.035,4.873-.123A68.423,68.423,0,0,1,218.733,139.7Zm-13.041-10.324c-2.489-.368-4.891-.824-7.187-1.385.649-2.261,1.455-4.593,2.366-6.924.719,1.4,1.472,2.8,2.3,4.207S204.833,128.044,205.692,129.377ZM218.645,92.9a72.266,72.266,0,0,1,4.873,5.609c-1.578-.07-3.19-.123-4.82-.123-1.648,0-3.278.035-4.873.123A68.411,68.411,0,0,1,218.645,92.9Zm-12.971,10.324c-.859,1.35-1.718,2.734-2.524,4.154-.806,1.4-1.56,2.8-2.279,4.207-.947-2.349-1.753-4.7-2.419-6.976C200.749,104.065,203.168,103.592,205.674,103.224ZM189.811,125.17c-6.205-2.647-10.219-6.118-10.219-8.87s4.014-6.24,10.219-8.87c1.507-.649,3.155-1.227,4.855-1.77a84.192,84.192,0,0,0,3.944,10.675,83.006,83.006,0,0,0-3.891,10.622c-1.735-.543-3.383-1.139-4.908-1.788Zm9.43,25.048c-2.384-1.367-3.418-6.573-2.612-13.269.193-1.648.508-3.383.894-5.153a84.948,84.948,0,0,0,11.131,1.911,85.5,85.5,0,0,0,7.292,8.764c-5.714,5.311-11.078,8.221-14.724,8.221A4.183,4.183,0,0,1,199.241,150.218Zm41.578-13.357c.824,6.7-.193,11.9-2.559,13.287a3.9,3.9,0,0,1-2.016.456c-3.628,0-9.01-2.892-14.724-8.168a82.791,82.791,0,0,0,7.239-8.747,81.853,81.853,0,0,0,11.148-1.928A49.074,49.074,0,0,1,240.819,136.861Zm6.749-11.692c-1.507.649-3.155,1.227-4.855,1.77a84.181,84.181,0,0,0-3.944-10.675,83,83,0,0,0,3.891-10.622c1.735.543,3.383,1.139,4.926,1.788,6.205,2.647,10.219,6.118,10.219,8.87-.018,2.752-4.032,6.24-10.237,8.87Z" fill="#fff"/>
    <circle id="Elipse_1" data-name="Elipse 1" cx="8.011" cy="8.011" r="8.011" transform="translate(210.67 108.29)" fill="#fff"/>
  </g>
</svg>
