<svg xmlns="http://www.w3.org/2000/svg" xmlns:xlink="http://www.w3.org/1999/xlink" width="77" height="77" viewBox="0 0 77 77">
  <defs>
    <clipPath id="clip-path">
      <rect id="Ret칙ngulo_11" data-name="Ret칙ngulo 11" width="77" height="77" rx="10" transform="translate(2298 1005)" fill="#fff" stroke="#707070" stroke-width="1"/>
    </clipPath>
  </defs>
  <g id="Grupo_de_m치scara_2" data-name="Grupo de m치scara 2" transform="translate(-2298 -1005)" clip-path="url(#clip-path)">
    <g id="typescript" transform="translate(2298 1005)">
      <path id="Caminho_24" data-name="Caminho 24" d="M0,38.658V0H77.315V77.315H0" fill="#fff"/>
      <path id="Caminho_25" data-name="Caminho 25" d="M87.7,185.636v3.151H97.751v28.607h7.132V188.787h10.051v-3.093a24.09,24.09,0,0,0-.077-3.189c0-.058-6.127-.077-13.569-.077l-13.53.058v3.17l-.058-.019Zm45.172-3.228a9.359,9.359,0,0,1,4.832,2.764,12.162,12.162,0,0,1,1.856,2.474c0,.116-3.344,2.377-5.373,3.634-.077.058-.387-.271-.7-.773a4.42,4.42,0,0,0-3.634-2.165c-2.319-.155-3.866,1.063-3.866,3.093a3.054,3.054,0,0,0,.348,1.469c.522,1.063,1.488,1.7,4.484,3.015,5.528,2.377,7.925,3.943,9.374,6.185a11.262,11.262,0,0,1,.908,9.413c-1.237,3.228-4.252,5.412-8.563,6.127a24.111,24.111,0,0,1-5.9-.058,14.593,14.593,0,0,1-7.867-4.117,13.816,13.816,0,0,1-2.01-2.977l.735-.464,2.9-1.682,2.184-1.276.5.677a10.519,10.519,0,0,0,2.9,2.822c2.513,1.3,5.876,1.121,7.538-.387a2.9,2.9,0,0,0,1.024-2.319,2.983,2.983,0,0,0-.58-1.972c-.619-.85-1.856-1.546-5.335-3.093-4-1.7-5.7-2.783-7.287-4.446a10.98,10.98,0,0,1-2.126-3.866,14.8,14.8,0,0,1-.116-4.968,9.417,9.417,0,0,1,7.925-7.345,18.734,18.734,0,0,1,5.876.193l-.039.039Z" transform="translate(-70.749 -146.843)" fill="#131313"/>
    </g>
  </g>
</svg>
