<svg xmlns="http://www.w3.org/2000/svg" width="22.292" height="22.292" viewBox="0 0 22.292 22.292">
  <path id="whatsapp-brands-solid-full" d="M114.953,99.239A11.05,11.05,0,0,0,97.567,112.57L96,118.292l5.857-1.538a11.013,11.013,0,0,0,5.279,1.344h0a10.976,10.976,0,0,0,7.812-18.859Zm-7.812,17a9.165,9.165,0,0,1-4.677-1.279l-.333-.2-3.473.911.926-3.389-.219-.348a9.2,9.2,0,1,1,17.063-4.881A9.284,9.284,0,0,1,107.141,116.237Zm5.036-6.877c-.274-.139-1.632-.806-1.886-.9s-.438-.139-.622.139-.712.9-.876,1.085-.323.209-.6.07a7.513,7.513,0,0,1-3.757-3.284c-.284-.488.284-.453.811-1.508a.512.512,0,0,0-.025-.483c-.07-.139-.622-1.5-.851-2.05s-.453-.463-.622-.473-.343-.01-.527-.01a1.022,1.022,0,0,0-.736.343,3.1,3.1,0,0,0-.965,2.3,5.407,5.407,0,0,0,1.125,2.856,12.334,12.334,0,0,0,4.717,4.17,5.4,5.4,0,0,0,3.314.692A2.827,2.827,0,0,0,112.54,111a2.308,2.308,0,0,0,.159-1.314C112.635,109.564,112.45,109.495,112.177,109.36Z" transform="translate(-96 -96)" fill="#092f32"/>
</svg>
